<mxfile host="app.diagrams.net" modified="2024-04-13T19:42:07.234Z" agent="Mozilla/5.0 (X11; Linux x86_64; rv:109.0) Gecko/20100101 Firefox/115.0" etag="OU6z_lLNk6j2sTQElGlo" version="24.2.5" type="github">
  <diagram name="Page-1" id="42789a77-a242-8287-6e28-9cd8cfd52e62">
    <mxGraphModel dx="688" dy="790" grid="1" gridSize="10" guides="1" tooltips="1" connect="1" arrows="1" fold="1" page="1" pageScale="1" pageWidth="1100" pageHeight="850" background="none" math="0" shadow="0">
      <root>
        <mxCell id="0" />
        <mxCell id="1" parent="0" />
        <mxCell id="1ea317790d2ca983-12" style="edgeStyle=none;rounded=1;html=1;labelBackgroundColor=none;startArrow=none;startFill=0;startSize=5;endArrow=classicThin;endFill=1;endSize=5;jettySize=auto;orthogonalLoop=1;strokeColor=#000000;strokeWidth=1;fontFamily=Verdana;fontSize=12" parent="1" source="1ea317790d2ca983-1" target="1ea317790d2ca983-2" edge="1">
          <mxGeometry relative="1" as="geometry" />
        </mxCell>
        <mxCell id="1ea317790d2ca983-13" value="rabbit enters" style="edgeStyle=none;rounded=1;html=1;labelBackgroundColor=none;startArrow=none;startFill=0;startSize=5;endArrow=classicThin;endFill=1;endSize=5;jettySize=auto;orthogonalLoop=1;strokeColor=#000000;strokeWidth=1;fontFamily=Verdana;fontSize=12;exitX=0;exitY=0.5;exitDx=0;exitDy=0;" parent="1" source="1ea317790d2ca983-7" target="1ea317790d2ca983-9" edge="1">
          <mxGeometry x="-0.0044" relative="1" as="geometry">
            <mxPoint as="offset" />
          </mxGeometry>
        </mxCell>
        <mxCell id="1ea317790d2ca983-14" value="rabbit leaves" style="edgeStyle=none;rounded=1;html=1;labelBackgroundColor=none;startArrow=none;startFill=0;startSize=5;endArrow=classicThin;endFill=1;endSize=5;jettySize=auto;orthogonalLoop=1;strokeColor=#000000;strokeWidth=1;fontFamily=Verdana;fontSize=12;exitX=1;exitY=0.5;exitDx=0;exitDy=0;" parent="1" source="1ea317790d2ca983-7" target="1ea317790d2ca983-3" edge="1">
          <mxGeometry x="-0.0105" y="4" relative="1" as="geometry">
            <mxPoint x="607" y="321" as="sourcePoint" />
            <mxPoint as="offset" />
          </mxGeometry>
        </mxCell>
        <mxCell id="1ea317790d2ca983-1" value="Starting&amp;nbsp;&lt;div&gt;node&lt;/div&gt;" style="ellipse;whiteSpace=wrap;html=1;rounded=0;shadow=1;comic=0;labelBackgroundColor=none;strokeWidth=1;fontFamily=Verdana;fontSize=12;align=center;" parent="1" vertex="1">
          <mxGeometry x="450" y="80" width="90" height="60" as="geometry" />
        </mxCell>
        <mxCell id="1ea317790d2ca983-21" value="&lt;div&gt;manual&lt;/div&gt;&lt;div&gt;time&lt;/div&gt;&lt;div&gt;sunrise&lt;br&gt;&lt;/div&gt;" style="edgeStyle=none;rounded=1;html=1;labelBackgroundColor=none;startArrow=none;startFill=0;startSize=5;endArrow=classicThin;endFill=1;endSize=5;jettySize=auto;orthogonalLoop=1;strokeColor=#000000;strokeWidth=1;fontFamily=Verdana;fontSize=12" parent="1" source="1ea317790d2ca983-2" target="1ea317790d2ca983-7" edge="1">
          <mxGeometry relative="1" as="geometry">
            <mxPoint as="offset" />
          </mxGeometry>
        </mxCell>
        <mxCell id="1ea317790d2ca983-2" value="&lt;div&gt;door closed&lt;/div&gt;" style="ellipse;whiteSpace=wrap;html=1;rounded=0;shadow=1;comic=0;labelBackgroundColor=none;strokeWidth=1;fontFamily=Verdana;fontSize=12;align=center;" parent="1" vertex="1">
          <mxGeometry x="457.5" y="190" width="75" height="50" as="geometry" />
        </mxCell>
        <mxCell id="1ea317790d2ca983-3" value="decrement inhabitants" style="ellipse;whiteSpace=wrap;html=1;rounded=0;shadow=1;comic=0;labelBackgroundColor=none;strokeWidth=1;fontFamily=Verdana;fontSize=12;align=center;" parent="1" vertex="1">
          <mxGeometry x="615" y="320" width="75" height="50" as="geometry" />
        </mxCell>
        <mxCell id="1ea317790d2ca983-24" value="&lt;div&gt;manual&lt;/div&gt;&lt;div&gt;time&lt;/div&gt;&lt;div&gt;sunset&lt;/div&gt;" style="edgeStyle=none;rounded=1;html=1;labelBackgroundColor=none;startArrow=none;startFill=0;startSize=5;endArrow=classicThin;endFill=1;endSize=5;jettySize=auto;orthogonalLoop=1;strokeColor=#000000;strokeWidth=1;fontFamily=Verdana;fontSize=12;entryX=0.5;entryY=0;entryDx=0;entryDy=0;" parent="1" source="1ea317790d2ca983-7" target="XShz_KRLoV_zZnZCksw_-6" edge="1">
          <mxGeometry y="-5" relative="1" as="geometry">
            <mxPoint as="offset" />
          </mxGeometry>
        </mxCell>
        <mxCell id="1ea317790d2ca983-7" value="door open" style="ellipse;whiteSpace=wrap;html=1;rounded=0;shadow=1;comic=0;labelBackgroundColor=none;strokeWidth=1;fontFamily=Verdana;fontSize=12;align=center;" parent="1" vertex="1">
          <mxGeometry x="457.5" y="320" width="75" height="50" as="geometry" />
        </mxCell>
        <mxCell id="1ea317790d2ca983-9" value="increment inhabitants" style="ellipse;whiteSpace=wrap;html=1;rounded=0;shadow=1;comic=0;labelBackgroundColor=none;strokeWidth=1;fontFamily=Verdana;fontSize=12;align=center;" parent="1" vertex="1">
          <mxGeometry x="270" y="320" width="75" height="50" as="geometry" />
        </mxCell>
        <mxCell id="XShz_KRLoV_zZnZCksw_-4" value="" style="endArrow=classic;html=1;rounded=0;entryX=1;entryY=1;entryDx=0;entryDy=0;exitX=0;exitY=1;exitDx=0;exitDy=0;" edge="1" parent="1" source="1ea317790d2ca983-3" target="1ea317790d2ca983-7">
          <mxGeometry width="50" height="50" relative="1" as="geometry">
            <mxPoint x="650" y="480" as="sourcePoint" />
            <mxPoint x="700" y="430" as="targetPoint" />
          </mxGeometry>
        </mxCell>
        <mxCell id="XShz_KRLoV_zZnZCksw_-5" value="" style="endArrow=classic;html=1;rounded=0;exitX=1;exitY=1;exitDx=0;exitDy=0;entryX=0;entryY=1;entryDx=0;entryDy=0;" edge="1" parent="1" source="1ea317790d2ca983-9" target="1ea317790d2ca983-7">
          <mxGeometry width="50" height="50" relative="1" as="geometry">
            <mxPoint x="400" y="440" as="sourcePoint" />
            <mxPoint x="470" y="370" as="targetPoint" />
          </mxGeometry>
        </mxCell>
        <mxCell id="XShz_KRLoV_zZnZCksw_-6" value="door should close" style="ellipse;whiteSpace=wrap;html=1;rounded=0;shadow=1;comic=0;labelBackgroundColor=none;strokeWidth=1;fontFamily=Verdana;fontSize=12;align=center;" vertex="1" parent="1">
          <mxGeometry x="457.5" y="440" width="75" height="50" as="geometry" />
        </mxCell>
        <mxCell id="XShz_KRLoV_zZnZCksw_-13" value="" style="curved=1;endArrow=classic;html=1;rounded=0;entryX=0;entryY=0;entryDx=0;entryDy=0;exitX=0.06;exitY=0.86;exitDx=0;exitDy=0;exitPerimeter=0;" edge="1" parent="1" source="XShz_KRLoV_zZnZCksw_-6" target="XShz_KRLoV_zZnZCksw_-6">
          <mxGeometry width="50" height="50" relative="1" as="geometry">
            <mxPoint x="458" y="490" as="sourcePoint" />
            <mxPoint x="457.5" y="440" as="targetPoint" />
            <Array as="points">
              <mxPoint x="440" y="510" />
              <mxPoint x="377.5" y="470" />
              <mxPoint x="407.5" y="440" />
            </Array>
          </mxGeometry>
        </mxCell>
        <mxCell id="XShz_KRLoV_zZnZCksw_-14" value="inhabitants &amp;lt; max" style="edgeLabel;html=1;align=center;verticalAlign=middle;resizable=0;points=[];" vertex="1" connectable="0" parent="XShz_KRLoV_zZnZCksw_-13">
          <mxGeometry x="-0.0797" y="-4" relative="1" as="geometry">
            <mxPoint as="offset" />
          </mxGeometry>
        </mxCell>
        <mxCell id="XShz_KRLoV_zZnZCksw_-15" value="rabbit enters" style="edgeStyle=none;rounded=1;html=1;labelBackgroundColor=none;startArrow=none;startFill=0;startSize=5;endArrow=classicThin;endFill=1;endSize=5;jettySize=auto;orthogonalLoop=1;strokeColor=#000000;strokeWidth=1;fontFamily=Verdana;fontSize=12;exitX=0;exitY=1;exitDx=0;exitDy=0;" edge="1" parent="1" target="XShz_KRLoV_zZnZCksw_-18" source="XShz_KRLoV_zZnZCksw_-6">
          <mxGeometry x="-0.0044" relative="1" as="geometry">
            <mxPoint x="468" y="355" as="sourcePoint" />
            <mxPoint as="offset" />
          </mxGeometry>
        </mxCell>
        <mxCell id="XShz_KRLoV_zZnZCksw_-16" value="rabbit leaves" style="edgeStyle=none;rounded=1;html=1;labelBackgroundColor=none;startArrow=none;startFill=0;startSize=5;endArrow=classicThin;endFill=1;endSize=5;jettySize=auto;orthogonalLoop=1;strokeColor=#000000;strokeWidth=1;fontFamily=Verdana;fontSize=12;exitX=0.807;exitY=1.02;exitDx=0;exitDy=0;exitPerimeter=0;" edge="1" parent="1" target="XShz_KRLoV_zZnZCksw_-17" source="XShz_KRLoV_zZnZCksw_-6">
          <mxGeometry x="-0.0105" y="4" relative="1" as="geometry">
            <mxPoint x="543" y="355" as="sourcePoint" />
            <mxPoint as="offset" />
          </mxGeometry>
        </mxCell>
        <mxCell id="XShz_KRLoV_zZnZCksw_-17" value="decrement inhabitants" style="ellipse;whiteSpace=wrap;html=1;rounded=0;shadow=1;comic=0;labelBackgroundColor=none;strokeWidth=1;fontFamily=Verdana;fontSize=12;align=center;verticalAlign=middle;" vertex="1" parent="1">
          <mxGeometry x="610" y="589" width="75" height="50" as="geometry" />
        </mxCell>
        <mxCell id="XShz_KRLoV_zZnZCksw_-18" value="increment inhabitants" style="ellipse;whiteSpace=wrap;html=1;rounded=0;shadow=1;comic=0;labelBackgroundColor=none;strokeWidth=1;fontFamily=Verdana;fontSize=12;align=center;verticalAlign=middle;" vertex="1" parent="1">
          <mxGeometry x="270" y="579" width="75" height="50" as="geometry" />
        </mxCell>
        <mxCell id="XShz_KRLoV_zZnZCksw_-21" value="" style="endArrow=classic;html=1;rounded=0;exitX=0.4;exitY=-0.04;exitDx=0;exitDy=0;exitPerimeter=0;entryX=1;entryY=0.5;entryDx=0;entryDy=0;" edge="1" parent="1" source="XShz_KRLoV_zZnZCksw_-17" target="XShz_KRLoV_zZnZCksw_-6">
          <mxGeometry width="50" height="50" relative="1" as="geometry">
            <mxPoint x="650" y="480" as="sourcePoint" />
            <mxPoint x="700" y="430" as="targetPoint" />
            <Array as="points">
              <mxPoint x="620" y="500" />
            </Array>
          </mxGeometry>
        </mxCell>
        <mxCell id="XShz_KRLoV_zZnZCksw_-22" value="" style="endArrow=classic;html=1;rounded=0;exitX=1;exitY=0.5;exitDx=0;exitDy=0;entryX=0.367;entryY=1;entryDx=0;entryDy=0;entryPerimeter=0;" edge="1" parent="1" source="XShz_KRLoV_zZnZCksw_-18" target="XShz_KRLoV_zZnZCksw_-6">
          <mxGeometry width="50" height="50" relative="1" as="geometry">
            <mxPoint x="370" y="620" as="sourcePoint" />
            <mxPoint x="420" y="570" as="targetPoint" />
            <Array as="points">
              <mxPoint x="430" y="570" />
            </Array>
          </mxGeometry>
        </mxCell>
        <mxCell id="XShz_KRLoV_zZnZCksw_-23" value="" style="endArrow=classic;html=1;rounded=0;exitX=1;exitY=0;exitDx=0;exitDy=0;entryX=1;entryY=0.5;entryDx=0;entryDy=0;" edge="1" parent="1" source="XShz_KRLoV_zZnZCksw_-6" target="1ea317790d2ca983-2">
          <mxGeometry width="50" height="50" relative="1" as="geometry">
            <mxPoint x="450" y="440" as="sourcePoint" />
            <mxPoint x="750" y="200" as="targetPoint" />
            <Array as="points">
              <mxPoint x="750" y="450" />
              <mxPoint x="750" y="215" />
            </Array>
          </mxGeometry>
        </mxCell>
        <mxCell id="XShz_KRLoV_zZnZCksw_-24" value="inhabitants = max" style="edgeLabel;html=1;align=center;verticalAlign=middle;resizable=0;points=[];" vertex="1" connectable="0" parent="XShz_KRLoV_zZnZCksw_-23">
          <mxGeometry x="-0.0203" y="-3" relative="1" as="geometry">
            <mxPoint as="offset" />
          </mxGeometry>
        </mxCell>
      </root>
    </mxGraphModel>
  </diagram>
</mxfile>
